<svg id="Layer_1" xmlns="http://www.w3.org/2000/svg" xmlns:xlink="http://www.w3.org/1999/xlink" viewBox="0 0 1920 1080"><style>.st0{clip-path:url(#SVGID_2_)}.st1{fill:red}</style><defs><path id="SVGID_1_" d="M0 0h1920v1080H0z"/></defs><clipPath id="SVGID_2_"><use xlink:href="#SVGID_1_" overflow="visible"/></clipPath><g class="st0"><path class="st1" d="M516 650l-1-59s14.3-7.3 19-7 9.2-.5 11 7 16.7 36.5 21 90 25.9 87.1 28 87 122-2 122-2l5-153s37.6 6.6 75 4 69.4-8 72-9 33.2-9.6 35-11 25.2-7.7 21 33 11.8 118.7 24 126 95 7 95 7l10-152s66.6 11.1 99 11 86.6-9.9 101-18 47.2-19.9 35 22 2.1 97-12 121 35-5 35-5 39.1-127.4 39-129 2.4-24.6 35-10 25.6 64.3 26 89 40 109 40 109l420 20 49-1 1 263-1921-2V802l504-8 12-144z"/></g></svg>